<svg xmlns="http://www.w3.org/2000/svg" xmlns:xlink="http://www.w3.org/1999/xlink" width="360" zoomAndPan="magnify" viewBox="0 0 270 60" height="80" preserveAspectRatio="xMidYMid meet" version="1.0"><defs><g/></defs><g fill="#000000" fill-opacity="1"><g transform="translate(2.636719, 49.601822)"><g><path d="M 3.21875 0 L 6.441406 0 C 6.945312 0 7.359375 -0.414062 7.359375 -0.921875 L 7.359375 -27.691406 C 7.359375 -28.195312 7.589844 -28.472656 7.820312 -28.472656 C 8.050781 -28.472656 8.28125 -28.289062 8.464844 -27.964844 L 22.355469 -2.207031 C 22.492188 -1.933594 22.769531 -1.746094 23.089844 -1.746094 L 26.953125 -1.839844 C 27.230469 -1.839844 27.507812 -2.023438 27.644531 -2.253906 L 41.488281 -27.964844 C 41.671875 -28.289062 41.902344 -28.472656 42.132812 -28.472656 C 42.363281 -28.472656 42.59375 -28.195312 42.59375 -27.691406 L 42.59375 -0.921875 C 42.59375 -0.414062 43.007812 0 43.511719 0 L 46.734375 0 C 47.238281 0 47.652344 -0.414062 47.652344 -0.921875 L 47.652344 -38.222656 C 47.652344 -38.730469 47.238281 -39.144531 46.734375 -39.144531 L 42.316406 -39.144531 C 42.042969 -39.144531 41.71875 -39.007812 41.582031 -38.730469 L 25.621094 -9.109375 C 25.4375 -8.785156 25.207031 -8.601562 24.976562 -8.601562 C 24.746094 -8.601562 24.515625 -8.785156 24.332031 -9.109375 L 8.371094 -38.730469 C 8.234375 -39.007812 7.910156 -39.144531 7.636719 -39.144531 L 3.21875 -39.144531 C 2.714844 -39.144531 2.300781 -38.730469 2.300781 -38.222656 L 2.300781 -0.921875 C 2.300781 -0.414062 2.714844 0 3.21875 0 Z M 3.21875 0 "/></g></g></g><g fill="#000000" fill-opacity="1"><g transform="translate(52.588518, 49.601822)"><g><path d="M 1.105469 0 L 4.601562 0 C 5.105469 0 5.472656 -0.277344 5.65625 -0.734375 L 8.417969 -7.726562 C 8.601562 -8.1875 8.96875 -8.464844 9.476562 -8.464844 L 27.324219 -8.464844 C 27.828125 -8.464844 28.195312 -8.1875 28.378906 -7.726562 L 31.140625 -0.734375 C 31.324219 -0.277344 31.691406 0 32.199219 0 L 35.695312 0 C 36.246094 0 36.523438 -0.230469 36.523438 -0.644531 C 36.523438 -0.78125 36.476562 -0.921875 36.429688 -1.058594 L 21.757812 -38.363281 C 21.574219 -38.820312 21.203125 -39.097656 20.699219 -39.097656 L 16.097656 -39.097656 C 15.59375 -39.097656 15.226562 -38.820312 15.042969 -38.363281 L 0.367188 -1.058594 C 0.320312 -0.921875 0.277344 -0.78125 0.277344 -0.644531 C 0.277344 -0.230469 0.550781 0 1.105469 0 Z M 11.820312 -13.523438 C 11.269531 -13.523438 10.992188 -13.753906 10.992188 -14.167969 C 10.992188 -14.304688 11.039062 -14.441406 11.085938 -14.582031 L 17.800781 -31.644531 C 17.984375 -32.058594 18.167969 -32.246094 18.398438 -32.246094 C 18.628906 -32.246094 18.859375 -32.058594 18.996094 -31.644531 L 25.710938 -14.582031 C 25.757812 -14.441406 25.804688 -14.304688 25.804688 -14.167969 C 25.804688 -13.753906 25.527344 -13.523438 24.976562 -13.523438 Z M 11.820312 -13.523438 "/></g></g></g><g fill="#000000" fill-opacity="1"><g transform="translate(89.385426, 49.601822)"><g><path d="M 3.21875 0 L 6.441406 0 C 7.039062 0 7.359375 -0.320312 7.359375 -0.921875 L 7.359375 -14.71875 C 7.359375 -15.316406 7.679688 -15.640625 8.28125 -15.640625 L 18.675781 -15.640625 C 19.179688 -15.640625 19.550781 -15.410156 19.777344 -14.996094 L 28.335938 -0.644531 C 28.5625 -0.230469 28.933594 0 29.4375 0 L 33.53125 0 C 34.039062 0 34.3125 -0.230469 34.3125 -0.550781 C 34.3125 -0.734375 34.269531 -0.921875 34.128906 -1.105469 L 25.621094 -15.179688 C 25.527344 -15.363281 25.4375 -15.546875 25.4375 -15.683594 C 25.4375 -16.007812 25.667969 -16.238281 26.035156 -16.375 C 29.992188 -17.9375 32.660156 -21.710938 32.660156 -26.355469 L 32.660156 -28.378906 C 32.660156 -34.5 28.058594 -39.097656 21.941406 -39.097656 L 3.21875 -39.097656 C 2.621094 -39.097656 2.300781 -38.777344 2.300781 -38.179688 L 2.300781 -0.921875 C 2.300781 -0.320312 2.621094 0 3.21875 0 Z M 8.28125 -20.699219 C 7.679688 -20.699219 7.359375 -21.019531 7.359375 -21.617188 L 7.359375 -33.117188 C 7.359375 -33.714844 7.679688 -34.039062 8.28125 -34.039062 L 21.941406 -34.039062 C 25.296875 -34.039062 27.597656 -31.738281 27.597656 -28.378906 L 27.597656 -26.355469 C 27.597656 -23 25.296875 -20.699219 21.941406 -20.699219 Z M 8.28125 -20.699219 "/></g></g></g><g fill="#000000" fill-opacity="1"><g transform="translate(124.664459, 49.601822)"><g><path d="M 14.949219 0 L 18.167969 0 C 18.675781 0 19.089844 -0.414062 19.089844 -0.921875 L 19.089844 -33.117188 C 19.089844 -33.625 19.503906 -34.039062 20.007812 -34.039062 L 31.738281 -34.039062 C 32.246094 -34.039062 32.660156 -34.453125 32.660156 -34.957031 L 32.660156 -38.179688 C 32.660156 -38.683594 32.246094 -39.097656 31.738281 -39.097656 L 1.378906 -39.097656 C 0.875 -39.097656 0.460938 -38.683594 0.460938 -38.179688 L 0.460938 -34.957031 C 0.460938 -34.453125 0.875 -34.039062 1.378906 -34.039062 L 13.109375 -34.039062 C 13.617188 -34.039062 14.027344 -33.625 14.027344 -33.117188 L 14.027344 -0.921875 C 14.027344 -0.414062 14.441406 0 14.949219 0 Z M 14.949219 0 "/></g></g></g><g fill="#000000" fill-opacity="1"><g transform="translate(157.781668, 49.601822)"><g><path d="M 2.070312 0 L 16.328125 0 C 16.835938 0 17.25 -0.414062 17.25 -0.921875 L 17.25 -4.140625 C 17.25 -4.644531 16.835938 -5.058594 16.328125 -5.058594 L 12.648438 -5.058594 C 12.050781 -5.058594 11.730469 -5.382812 11.730469 -5.980469 L 11.730469 -33.117188 C 11.730469 -33.714844 12.050781 -34.039062 12.648438 -34.039062 L 16.328125 -34.039062 C 16.835938 -34.039062 17.25 -34.453125 17.25 -34.957031 L 17.25 -38.179688 C 17.25 -38.683594 16.835938 -39.097656 16.328125 -39.097656 L 2.070312 -39.097656 C 1.5625 -39.097656 1.148438 -38.683594 1.148438 -38.179688 L 1.148438 -34.957031 C 1.148438 -34.453125 1.5625 -34.039062 2.070312 -34.039062 L 5.75 -34.039062 C 6.347656 -34.039062 6.667969 -33.714844 6.667969 -33.117188 L 6.667969 -5.980469 C 6.667969 -5.382812 6.347656 -5.058594 5.75 -5.058594 L 2.070312 -5.058594 C 1.5625 -5.058594 1.148438 -4.644531 1.148438 -4.140625 L 1.148438 -0.921875 C 1.148438 -0.414062 1.5625 0 2.070312 0 Z M 2.070312 0 "/></g></g></g><g fill="#000000" fill-opacity="1"><g transform="translate(176.180116, 49.601822)"><g><path d="M 3.21875 0 L 6.441406 0 C 7.039062 0 7.359375 -0.320312 7.359375 -0.921875 L 7.359375 -28.75 C 7.359375 -29.253906 7.589844 -29.53125 7.867188 -29.53125 C 8.050781 -29.53125 8.28125 -29.390625 8.464844 -29.070312 L 26.496094 -0.597656 C 26.769531 -0.136719 27.09375 0 27.597656 0 L 31.738281 0 C 32.335938 0 32.660156 -0.320312 32.660156 -0.921875 L 32.660156 -38.179688 C 32.660156 -38.777344 32.335938 -39.097656 31.738281 -39.097656 L 28.519531 -39.097656 C 27.921875 -39.097656 27.597656 -38.777344 27.597656 -38.179688 L 27.597656 -10.347656 C 27.597656 -9.84375 27.367188 -9.566406 27.09375 -9.566406 C 26.910156 -9.566406 26.679688 -9.707031 26.496094 -10.027344 L 8.417969 -38.5 C 8.140625 -38.960938 7.820312 -39.097656 7.3125 -39.097656 L 3.21875 -39.097656 C 2.621094 -39.097656 2.300781 -38.777344 2.300781 -38.179688 L 2.300781 -0.921875 C 2.300781 -0.320312 2.621094 0 3.21875 0 Z M 3.21875 0 "/></g></g></g><g fill="#000000" fill-opacity="1"><g transform="translate(211.137169, 49.601822)"><g><path d="M 4.601562 0 L 11.039062 0 C 11.546875 0 11.960938 -0.414062 11.960938 -0.921875 L 11.960938 -7.359375 C 11.960938 -7.867188 11.546875 -8.28125 11.039062 -8.28125 L 4.601562 -8.28125 C 4.09375 -8.28125 3.679688 -7.867188 3.679688 -7.359375 L 3.679688 -0.921875 C 3.679688 -0.414062 4.09375 0 4.601562 0 Z M 4.601562 0 "/></g></g></g><g fill="#000000" fill-opacity="1"><g transform="translate(226.775841, 49.601822)"><g><path d="M 10.535156 0 L 14.628906 0 C 16.882812 0 18.996094 -0.507812 20.746094 -1.472656 C 20.929688 -1.5625 21.066406 -1.609375 21.203125 -1.609375 C 21.527344 -1.609375 21.710938 -1.378906 21.710938 -0.921875 C 21.710938 -0.414062 22.125 0 22.628906 0 L 25.851562 0 C 26.355469 0 26.769531 -0.414062 26.769531 -0.921875 L 26.769531 -18.492188 C 26.769531 -24.609375 22.355469 -29.023438 16.238281 -29.023438 L 12.003906 -29.023438 C 6.898438 -29.023438 2.988281 -25.988281 1.839844 -21.433594 C 1.65625 -20.789062 2.160156 -20.238281 2.804688 -20.238281 L 6.164062 -20.238281 C 6.484375 -20.238281 6.808594 -20.46875 6.945312 -20.789062 C 7.773438 -22.675781 9.660156 -23.964844 12.003906 -23.964844 L 16.238281 -23.964844 C 19.226562 -23.964844 21.34375 -22.214844 21.664062 -18.765625 C 21.710938 -18.167969 21.25 -17.753906 20.699219 -17.753906 L 10.535156 -17.753906 C 5.425781 -17.753906 1.609375 -13.9375 1.609375 -8.878906 C 1.609375 -3.816406 5.425781 0 10.535156 0 Z M 10.535156 -5.058594 C 8.234375 -5.058594 6.667969 -6.625 6.667969 -8.878906 C 6.667969 -11.132812 8.234375 -12.695312 10.535156 -12.695312 L 20.789062 -12.695312 C 21.296875 -12.695312 21.710938 -12.417969 21.710938 -12.097656 C 21.710938 -8.003906 18.722656 -5.058594 14.628906 -5.058594 Z M 10.535156 -5.058594 "/></g></g></g><g fill="#000000" fill-opacity="1"><g transform="translate(255.845389, 49.601822)"><g><path d="M 3.21875 -32.382812 L 8.28125 -32.382812 C 8.785156 -32.382812 9.199219 -32.796875 9.199219 -33.300781 L 9.199219 -38.179688 C 9.199219 -38.683594 8.785156 -39.097656 8.28125 -39.097656 L 3.21875 -39.097656 C 2.714844 -39.097656 2.300781 -38.683594 2.300781 -38.179688 L 2.300781 -33.300781 C 2.300781 -32.796875 2.714844 -32.382812 3.21875 -32.382812 Z M 4.140625 0 L 7.359375 0 C 7.867188 0 8.28125 -0.414062 8.28125 -0.921875 L 8.28125 -28.105469 C 8.28125 -28.609375 7.867188 -29.023438 7.359375 -29.023438 L 4.140625 -29.023438 C 3.632812 -29.023438 3.21875 -28.609375 3.21875 -28.105469 L 3.21875 -0.921875 C 3.21875 -0.414062 3.632812 0 4.140625 0 Z M 4.140625 0 "/></g></g></g></svg>